<svg id="Layer_1" enable-background="new 0 0 480 480" height="512" viewBox="0 0 480 480" width="512" xmlns="http://www.w3.org/2000/svg"><g><path d="m172.588 148c1.946 0 3.592-1.405 3.935-3.321 8.286-46.223 62.527-68.263 100.671-40.362 1.567 1.146 3.724 1.017 5.128-.325l14.631-13.988c1.739-1.662 1.645-4.494-.236-5.993-15.718-12.518-35.608-20.011-57.217-20.011-46.486 0-85.023 34.658-91.146 79.49-.326 2.389 1.562 4.51 3.973 4.51z"/><path d="m286.361 204.382c-1.51-1.227-3.673-1.176-5.147.095-11.211 9.664-25.787 15.523-41.714 15.523-31.425 0-57.616-22.773-62.977-52.679-.343-1.916-1.989-3.321-3.935-3.321h-20.26c-2.411 0-4.299 2.121-3.973 4.51 6.122 44.832 44.659 79.49 91.145 79.49 24.261 0 46.355-9.443 62.809-24.843 1.762-1.649 1.636-4.488-.237-6.01z"/><path d="m293.386 115.551c-1.408 1.346-1.627 3.499-.549 5.121 13.061 19.651 14.335 45.21 2.675 66.241-.945 1.705-.556 3.837.957 5.066l15.716 12.769c1.894 1.539 4.693 1.026 5.962-1.059 18.926-31.095 17.914-71.208-4.151-101.607-1.416-1.951-4.245-2.178-5.987-.512z"/><path d="m136.5 388h-64.835c-5.345 0-8.022 6.463-4.243 10.243l66.835 66.835c3.78 3.78 10.243 1.103 10.243-4.243v-64.835c0-4.418-3.582-8-8-8z"/><path d="m344.5 365h-15c-4.418 0-8 3.582-8 8v42c0 2.209 1.791 4 4 4h23c2.209 0 4-1.791 4-4v-42c0-4.418-3.582-8-8-8z"/><path d="m403.5 0h-327c-13.255 0-24 10.745-24 24v340c0 4.418 3.582 8 8 8h76c13.255 0 24 10.745 24 24v76c0 4.418 3.582 8 8 8h235c13.255 0 24-10.745 24-24v-432c0-13.255-10.745-24-24-24zm-164 48c59.549 0 108 48.321 108 108 0 59.354-48.12 108-108 108-59.551 0-108-48.448-108-108s48.449-108 108-108zm-90 288h-43c-4.418 0-8-3.582-8-8s3.582-8 8-8h43c4.418 0 8 3.582 8 8s-3.582 8-8 8zm19-44h-62c-4.418 0-8-3.582-8-8s3.582-8 8-8h62c4.418 0 8 3.582 8 8s-3.582 8-8 8zm205 143h-166c-4.418 0-8-3.582-8-8s3.582-8 8-8h4v-64c0-13.234 10.766-24 24-24 15.404 0 17.926-.423 23 1.376v-15.376c0-13.234 10.767-24 24-24h15c13.233 0 24 10.766 24 24v33.376c5.042-1.788 7.489-1.376 23-1.376 13.233 0 24 10.766 24 24v46h5c4.418 0 8 3.582 8 8s-3.582 8-8 8z"/><path d="m258.5 355c0-4.418-3.582-8-8-8h-15c-4.418 0-8 3.582-8 8v60c0 2.209 1.791 4 4 4h23c2.209 0 4-1.791 4-4z"/><circle cx="239.5" cy="156" r="48"/><path d="m305.5 317c0-4.418-3.582-8-8-8h-15c-4.418 0-8 3.582-8 8v98c0 2.209 1.791 4 4 4h23c2.209 0 4-1.791 4-4z"/></g></svg>