<svg enable-background="new 0 0 32 32" height="512" viewBox="0 0 32 32" width="512" xmlns="http://www.w3.org/2000/svg"><g id="Layer_14"><path d="m27.792 4.948h-10.892v-2.208c0-.497-.403-.9-.9-.9s-.9.403-.9.9v2.208h-10.892c-1.219 0-2.208.989-2.208 2.208v13.917c0 1.22.989 2.208 2.208 2.208h6.19l-3.179 5.53c-.248.431-.1.981.332 1.229.142.081.295.12.447.12.312 0 .615-.162.781-.452l3.695-6.428h7.05l3.695 6.428c.166.29.47.452.781.452.152 0 .307-.039.447-.12.432-.248.58-.798.332-1.229l-3.179-5.53h6.19c1.22 0 2.208-.989 2.208-2.208v-13.917c.002-1.219-.987-2.208-2.206-2.208zm-15.276 10.567h-5.086c-.497 0-.9-.403-.9-.9s.403-.9.9-.9h5.086c.497 0 .9.403.9.9s-.403.9-.9.9zm6.226-4.894h-11.312c-.497 0-.9-.403-.9-.9s.403-.9.9-.9h11.313c.497 0 .9.403.9.9s-.404.9-.901.9z"/></g></svg>